<?xml version="1.0" encoding="UTF-8"?><svg id="b" xmlns="http://www.w3.org/2000/svg" xmlns:xlink="http://www.w3.org/1999/xlink" viewBox="0 0 320 320"><defs><style>.i{fill:#73a8e6;}.j{fill:#8cb9ea;}.k{fill:#d0e7ff;}.l{fill:#5893d7;}.m{fill:#497ab3;}.n{clip-path:url(#c);}</style><clipPath id="c"><path class="i" d="M112.37,147.47s17.03,22.89,47.91,15.26c68.46-16.92,26.36-134.48-52.49-78.41-56.63,40.26-30.66,154.92,90.29,133.95,55.56-9.63,79.05,17.3,79.05,17.3,0,0-33.94,27.5-97.34,45.51C18.68,326.87-12.73,99.03,131.01,43.93c165.73-63.53,215.95,168.13,37.44,148.61-58.17-6.36-56.07-45.07-56.07-45.07Z"/></clipPath></defs><path class="i" d="M112.37,147.47s17.03,22.89,47.91,15.26c68.46-16.92,26.36-134.48-52.49-78.41-56.63,40.26-30.66,154.92,90.29,133.95,55.56-9.63,79.05,17.3,79.05,17.3,0,0-33.94,27.5-97.34,45.51C18.68,326.87-12.73,99.03,131.01,43.93c165.73-63.53,215.95,168.13,37.44,148.61-58.17-6.36-56.07-45.07-56.07-45.07Z"/><g class="n"><path class="l" d="M88.29,106.65c-48.25,63.52-28.69,136.62,18.3,155.26,41.17,16.33,53.41-6.21,107.18,20.41,22-11.71,73.84-46.05,73.84-46.05l-39.84-24.32-84.21,2.41-60.95-27.68-19.96-46.05s3.73-20.5,5.66-33.97Z"/><path class="m" d="M83.7,167.68c-.67,36.64,12.67,56.53,38.12,65.65,57.52,20.59,69.94-12.06,135.4,32.24,29.1-8.87,18.65-9.87,18.65-9.87l13.64-22.59-16.13-13.96-38.68-7.81-106.2-4.44s-34.32-24.15-44.81-39.21Z"/><path class="j" d="M110.71,144.97s17.14,27.93,56.71,26.96c78.97-1.95,79-111.98,14.04-125.59-68.8-14.42-99.89,22.42-99.89,22.42l62.95-37.26,44.32-4.13,37,2.13,33.54,42.72,5.99,56.56-20.89,44.98-30.49,16.61-68.79-7.16-34.74-24.75,.27-13.49Z"/><path class="k" d="M106.23,134.5s3.88,14.72,17.83,27.58c3.63,3.34,7.93,6.56,13.03,9.36,3.9,2.14,12.97,7.43,12.97,7.43l17.03-.53,15.44,4.61,13.24-3.34,15.86-.74,11.71-9.94,11.89-3.02,3.55-9.67,10.82-9.49,1.02-11.19,4.04-8.86-.98-13.4,2.66-11.62s-1.38-6.42-1.66-9.56c-.31-3.49-.8-6.78-1.43-9.87-.88-4.32-2.05-8.26-3.43-11.85-1.38-3.59-2.99-6.84-4.74-9.77-2.34-3.9-4.94-7.25-7.66-10.12-13.46-14.19-29.7-16.62-29.7-16.62l36.91,4.26,34.25,32.83,7.63,63.53-28.75,47.56-65.12,20.41-64.77-17.39-19.53-25.43-2.12-25.14Z"/></g></svg>