<?xml version="1.0" encoding="UTF-8"?><svg id="a" xmlns="http://www.w3.org/2000/svg" viewBox="0 0 200 200"><defs><style>.h{fill:#2c2828;fill-rule:evenodd;stroke-width:0px;}</style></defs><g id="b"><g id="c"><path id="d" class="h" d="M175.69,121.66c-1.06,0-1.92-.86-1.92-1.92.05-1.06.95-1.88,2.01-1.83.99.04,1.79.84,1.83,1.83,0,1.05-.86,1.92-1.92,1.92ZM175.69,117.47c-1.26,0-2.28,1.01-2.28,2.27s1.02,2.25,2.28,2.25,2.28-.99,2.28-2.25-1.02-2.27-2.28-2.27ZM175.26,119.57v-.73h.42c.24,0,.51.07.51.35,0,.31-.3.38-.56.38h-.37ZM176.65,119.2c0-.55-.47-.75-.95-.75h-.9v2.56h.46v-1.07h.33l.6,1.07h.56l-.69-1.12c.36-.08.59-.32.59-.69h0ZM162.3,86.76c2.57.07,4.72-1.96,4.79-4.53.07-2.57-1.96-4.72-4.53-4.79-.08,0-.17,0-.25,0-2.57.05-4.62,2.18-4.57,4.75.05,2.5,2.07,4.52,4.57,4.57h0ZM149.79,90.79v6.84h8.65v24.04h7.71v-24.04h8.65v-6.84h-25.01ZM82.49,86.76c2.57,0,4.66-2.09,4.66-4.66s-2.09-4.66-4.66-4.66h0c-2.57.05-4.62,2.18-4.57,4.75.05,2.5,2.07,4.52,4.57,4.57ZM69.99,97.62h8.65v24.04h7.71v-24.04h8.65v-6.84h-25.01v6.84h0ZM136.67,121.66h7.72v-30.85h-7.71v30.85h0ZM121.06,107.77c0,4.11-2.32,8.35-7.2,8.35s-5.79-4.56-5.79-8.23v-17.1h-7.71v19.28c0,6.3,3.34,12.47,11.38,12.47,4.56,0,8.23-2.76,9.58-5.85h.13v4.95h7.33v-30.85h-7.71v16.97ZM54.68,89.91c-4.56,0-8.23,2.76-9.58,5.85h-.13v-4.95h-7.33v30.85h7.71v-16.97c0-4.11,2.32-8.36,7.2-8.36s5.79,4.56,5.79,8.23v17.1h7.71v-19.29c0-6.3-3.34-12.47-11.38-12.47h0ZM22.03,121.66h7.71v-30.85h-7.71v30.85Z"/></g></g></svg>