<?xml version="1.0" encoding="UTF-8"?><svg id="c" xmlns="http://www.w3.org/2000/svg" viewBox="0 0 380 200"><defs><style>.y{fill:#d0e7ff;stroke-width:0px;}</style></defs><g id="d"><g id="e"><path id="f" class="y" d="m141.41,83.95c-.91,0-.88,1.38-.88,1.38.11,5.25,4.18,6.55,4.18,6.55,1.54.94,1.84-.35,1.84-.35l1.25-2.4-2.26-5.35-4.12.18Zm6.31-10.1l6.08,13.89c.68,1.52,1.58.48,1.58.48.96-.57,1.33-.25,1.33-.25.62.44.05,1.08.05,1.08l-2.35,4.56c-.64,1.72-2.37.17-2.37.17-.62-.31-2.42-1.81-2.42-1.81-.61-1.01-1.33-.02-1.33-.02l-2.63,4.74c-.85,1.95-3.29.7-3.29.7-8.5-2.83-3.61-13.86-3.61-13.86.5-1.92,1.64-1.63,1.64-1.63l4.35-.15c-.15-1.32-1.86-4.2-1.86-4.2-.45-1.06-1.17-.85-1.17-.85l-7.3.46c-.65.08-.59-.43-.59-.43-.15-.46.61-.81.61-.81,1.43-.55,2.69-2.81,2.69-2.81.92-1.25,2.02-.96,2.02-.96l4.38-.19c3.24-.16,4.19,1.9,4.19,1.9"/></g><g id="g"><path id="h" class="y" d="m259.61,87.06l-4.23.76s-.73.11-.63.53c0,0,.02.43.49.55l.49.33s1.09.52.11,1.88l-5.41,8.92s-2.67,4.16-1.65,7.47c.43,1.41-1.03,3.53-1.07,3.49,0,0-.2-1.48-3.91-3.16,0,0-1.19-.77-2.32.29l-1.51,1.26s-.74.72.08.86c0,0,1.95.66,4.06,3.3,0,0,.82,1.35,2.63,1.21,0,0,3.41-.2,5.75-4.63.49-.29,2.62,2.59,8.8-1.73,4.95-3.46,8.74-7.71,8.65-14.37,0,0,.15-1.94-1.56-1.49l-2.66.27s-1.46-.12-1.28,1.63c0,0,.58,9.11-9.25,11,0,0-1.88.59-1.12-1.08,0,0,3.82-6.72,6.37-9.96,0,0,3.07-3.28,1.16-6.45l-.41-.59s-.23-.59-1.56-.29"/></g><g id="i"><path id="j" class="y" d="m186.13,74.1c-.84-.34-1.33.96-1.33.96-1.86,4.91,1.44,7.63,1.44,7.63,1.08,1.44,1.83.36,1.83.36l2.06-1.76-.1-5.81-3.9-1.38Zm9.75-6.49l.34,14.63c.07,1.66,1.29,1.03,1.29,1.03,1.1-.16,1.32.28,1.32.28.41.63-.36,1.01-.36,1.01l-3.87,3.36c-1.23,1.35-2.25-.73-2.25-.73-.46-.52-1.57-2.58-1.57-2.58-.2-1.16-1.24-.52-1.24-.52l-4.22,3.43c-1.5,1.48-3.3-.58-3.3-.58-6.84-5.8,1.82-14.21,1.82-14.21,1.18-1.59,2.13-.9,2.13-.9l4.08,1.49c.35-1.29-.15-4.61-.15-4.61-.02-1.14-.76-1.22-.76-1.22l-6.96-2.29c-.62-.16-.38-.63-.38-.63.03-.48.87-.52.87-.52,1.54.03,3.55-1.61,3.55-1.61,1.32-.81,2.23-.14,2.23-.14l4.14,1.47c3.27,1.05,3.29,3.84,3.29,3.84"/></g><g id="k"><path id="l" class="y" d="m221.35,72.19l-1.25,4.83-.35,1.41-1.29,4.94c-.74,2.24-.04,2.33-.04,2.33l3.01,2.15c.65.47.78-.65.78-.65l4.04-12.35c.6-2.2-.08-2.84-.08-2.84l-.34-.6c-.82-1.07,0-1.24,0-1.24l3.27-1.3c1.25-.64,1.63.39,1.63.39,2.53,3.23,1.12,6.88,1.12,6.88l-4.69,13.81c-.39,1.51-1.51.99-1.51.99-3.14-.26-5.72,1.21-5.72,1.21-1.33.99-2.23-.38-2.23-.38-.21-.26-3.66-2.67-3.66-2.67-1.59-1.29-2.88-.34-2.88-.34l-1.5.74c-1.34,1.08-2.02-.22-2.02-.22-1.56-2.58-6.24-4.22-6.24-4.22-.6,0-.7-.51-.7-.51-.12-.43.48-.73.48-.73l.69-.61c.73-.64.69-1.33.69-1.33l1.95-15.18c.58-4.03-.35-4.17-.35-4.17-.7-.31-.41-.81-.41-.81.16-.33.58-.17.58-.17,6.09.91,6.17,4.12,6.17,4.12l-2.44,15.95c-.3,2.03.65,2.06.65,2.06l2.23,1.42c1.47,1.12,1.69-1.25,1.69-1.25l2.92-11.45.07-.3c.27-2.22-.85-2.93-.85-2.93-.99-.82.13-1.3.13-1.3l2.58-1.5c1.21-.64,1.6.04,1.6.04,3.01,2.86,2.3,5.78,2.3,5.78"/></g><g id="m"><path id="n" class="y" d="m153.22,66.64l5.17,17.07s1.14,3,.04,4.36c0,0-.52.22-.33.73,0,0,.06.38.84.41,0,0,4.57.06,5.99,1.27,0,0,1.2,1.16,1.84-.2,0,0-.9-3.25-1.71-5.55l-7.58-24s-.75-1.87.49-3.92c0,0,.64-.69.12-1.13,0,0-.46-.39-1.27.19,0,0-1.5.98-3.06,3.51,0,0-1.64,3.34-.53,7.26"/></g><g id="o"><path id="p" class="y" d="m167.22,62.69l2.84,18.27s.71,3.13-.57,4.32c0,0-.55.15-.43.68,0,0,0,.39.76.51,0,0,4.71.55,5.95,1.93,0,0,1.03,1.32,1.85.07,0,0-.61-3.19-1.09-5.58l-4.13-24.83s-.49-1.96,1.04-3.8c0,0,.74-.61.27-1.12,0,0-.41-.45-1.28.02,0,0-1.62.76-3.53,3.05,0,0-2.22,2.44-1.67,6.48"/></g><g id="q"><path id="r" class="y" d="m118.32,101.48c.38,1.55-.73,1.79-.73,1.79-.67.34-1.37-.07-1.37-.07-.76-.34-1.31-.78-1.31-.78-1.44-.91-3.06-2.77-3.99-4.74-2.77-5.82-.29-11.16.9-12.53,0,0,.44-.67.81-.86,0,0,.68-.69,1.16.03,0,0,.31.59.26,1.42,0,0,0,.57-.06.91-.09.84-.61,2.05-.56,2.97.05,1.09.52,2.31.91,3.05,1.04,1.93,3.2,6.27,3.57,7.38.3.8.4,1.42.4,1.42m20.08-1.75c1.13-1.85.21-2.72-.49-2.97-2.54-.89-3.58,5.78-8.73,7.85-5.75,2.3-7.31.8-7.81-.04-1.05-1.79,1.99-5.56-.16-10.33-2.48-5.52-5.34-8.96-3.97-11.45,1.34-2.44,5.28-2.04,7.12-2.07,3.72-.05,4.29-4.79,3.77-5.93-.25-.55-.85-.65-1.4-.4-1.85.82-2.29,1.21-3.91,1.47-1.63.25-2.66.37-6.32,1.13-2.98.62-14.39,9.04-9.01,23.63,4.44,11.99,17.4,11.39,22.08,9.44,5.18-2.17,7.65-8.4,8.83-10.32"/></g><g id="s"><path id="t" class="y" d="m239.46,86.22c-.6-.68-1.61.25-1.61.25-3.88,3.54-2.17,7.46-2.17,7.46.31,1.77,1.47,1.14,1.47,1.14l2.63-.63,2.54-5.23-2.86-2.99Zm11.64-1.39l-6.32,13.21c-.69,1.51.68,1.5.68,1.5,1.06.35,1.05.84,1.05.84.08.76-.77.75-.77.75l-4.97,1.25c-1.71.64-1.68-1.67-1.68-1.67-.18-.67-.23-3.02-.23-3.02.35-1.12-.87-1.01-.87-1.01l-5.31,1.14c-2.01.64-2.68-2.02-2.68-2.02-3.48-8.27,8.05-11.84,8.05-11.84,1.77-.9,2.31.15,2.31.15l2.97,3.18c.9-1,1.94-4.18,1.94-4.18.5-1.02-.13-1.42-.13-1.42l-5.17-5.19c-.48-.43-.05-.73-.05-.73.25-.43,1-.07,1-.07,1.36.72,3.9.17,3.9.17,1.55-.12,2.05.88,2.05.88l3.03,3.19c2.43,2.42,1.2,4.91,1.2,4.91"/></g><g id="u"><path id="v" class="y" d="m188.11,147.05c1.34,0,2.67-1.06,4.06-3.24,0,0,19.2-30.02,20.43-31.84,1.78-2.63-1.52-6.39-4.44-3.13,0,0-14.87,16.03-16.75,18.18-1.21,1.38-2.14,2.1-3.3,2.1s-2.09-.72-3.3-2.1c-1.88-2.15-16.75-18.18-16.75-18.18-2.92-3.26-6.22.51-4.44,3.13,1.23,1.82,20.43,31.84,20.43,31.84,1.39,2.18,2.72,3.25,4.06,3.24"/></g></g></svg>