<?xml version="1.0" encoding="UTF-8"?><svg id="c" xmlns="http://www.w3.org/2000/svg" viewBox="0 0 380 200"><defs><style>.i{fill:#d0e7ff;fill-rule:evenodd;stroke-width:0px;}</style></defs><g id="d"><g id="e"><path id="f" class="i" d="m263.69,121.66c-1.06,0-1.92-.86-1.92-1.92.05-1.06.95-1.88,2.01-1.83.99.04,1.79.84,1.83,1.83,0,1.05-.86,1.92-1.92,1.92Zm0-4.19c-1.26,0-2.28,1.01-2.28,2.27s1.02,2.25,2.28,2.25,2.28-.99,2.28-2.25-1.02-2.27-2.28-2.27Zm-.43,2.1v-.73h.42c.24,0,.51.07.51.35,0,.31-.3.38-.56.38h-.37Zm1.39-.37c0-.55-.47-.75-.95-.75h-.9v2.56h.46v-1.07h.33l.6,1.07h.56l-.69-1.12c.36-.08.59-.32.59-.69h0Zm-14.35-32.43c2.57.07,4.72-1.96,4.79-4.53.07-2.57-1.96-4.72-4.53-4.79-.08,0-.17,0-.25,0-2.57.05-4.62,2.18-4.57,4.75.05,2.5,2.07,4.52,4.57,4.57h0Zm-12.5,4.02v6.84h8.65v24.04h7.71v-24.04h8.65v-6.84h-25.01Zm-67.3-4.02c2.57,0,4.66-2.09,4.66-4.66s-2.09-4.66-4.66-4.66h0c-2.57.05-4.62,2.18-4.57,4.75.05,2.5,2.07,4.52,4.57,4.57Zm-12.51,10.86h8.65v24.04h7.71v-24.04h8.65v-6.84h-25.01v6.84h0Zm66.69,24.04h7.72v-30.85h-7.71v30.85h0Zm-15.61-13.88c0,4.11-2.32,8.35-7.2,8.35s-5.79-4.56-5.79-8.23v-17.1h-7.71v19.28c0,6.3,3.34,12.47,11.38,12.47,4.56,0,8.23-2.76,9.58-5.85h.13v4.95h7.33v-30.85h-7.71v16.97Zm-66.38-17.87c-4.56,0-8.23,2.76-9.58,5.85h-.13v-4.95h-7.33v30.85h7.71v-16.97c0-4.11,2.32-8.36,7.2-8.36s5.79,4.56,5.79,8.23v17.1h7.71v-19.29c0-6.3-3.34-12.47-11.38-12.47h0Zm-32.65,31.75h7.71v-30.85h-7.71v30.85Z"/></g></g></svg>