<?xml version="1.0" encoding="UTF-8"?><svg id="c" xmlns="http://www.w3.org/2000/svg" viewBox="0 0 380 200"><defs><style>.g{fill:#d0e7ff;fill-rule:evenodd;stroke-width:0px;}</style></defs><g id="d"><path class="g" d="m128.87,138.27c.51-.21,1-.53,1.57-.51.68.13,1.1.73,1.58,1.18,6.46,6.43,12.89,12.88,19.33,19.31.36.4.82.8.89,1.36-.03.55-.32,1.04-.55,1.53-7.61-.01-15.21-.01-22.81-.01,0-7.61-.01-15.24,0-22.85"/><path class="g" d="m244.6,157.23c1.82,0,3.25-1.42,3.25-3.35s-1.43-3.33-3.25-3.33-3.27,1.43-3.27,3.33,1.43,3.35,3.27,3.35Zm-1.55-5.66h1.76c1.09,0,1.64.4,1.64,1.32,0,.83-.52,1.19-1.2,1.27l1.32,2.04h-.79l-1.22-2.01h-.81v2.01h-.7v-4.63Z"/><path class="g" d="m245.71,152.84c0-.57-.52-.68-1.01-.68h-.96v1.43h.84c.59,0,1.13-.04,1.13-.75Z"/><path class="g" d="m245.97,71.08c-.76-.63-1.39-1.4-2.13-2.04.18-.31.37-.62.58-.91.77-1.22,1.28-2.62,1.46-4.04.27-2.09-.13-4.24-1.03-6.14-.29-.67-.63-1.4-.44-2.14.15-.37.49-.64.83-.81.53-.24,1.16-.04,1.54.36,1.45,1.44,2.88,2.9,4.34,4.34.01-6.95,0-13.89,0-20.82-7.1.01-14.21-.03-21.32.01,1.48,1.5,2.98,2.98,4.47,4.48.32.3.5.78.31,1.19-.23.59-.73,1.18-1.4,1.22-.68-.06-1.25-.47-1.85-.73-1.59-.69-3.34-1.14-5.07-.96-1.93.14-3.7,1-5.26,2.08-.68-.71-1.4-1.37-2.08-2.09,1.72-1.73,3.47-3.45,5.17-5.19-6.16-.03-12.34-.01-18.51-.01h-76.71c0,31.75-.01,63.51,0,95.26,2.82-2.86,5.7-5.69,8.53-8.55.41-.42.95-.77,1.55-.81.87-.06,1.68.87,1.44,1.73-.19.68-.72,1.28-.69,2.03.15.63.68,1.05,1.12,1.49,6.52,6.52,13.04,13.06,19.58,19.58.32.31.68.65,1.16.69.74,0,1.33-.57,2.05-.71.86-.18,1.73.68,1.62,1.54-.08.75-.6,1.31-1.12,1.8-2.73,2.73-5.47,5.47-8.2,8.2h34.75c.18-.36.4-.82.08-1.18-.71-.82-1.53-1.54-2.28-2.34-3.02-3.02-6.03-6.02-9.04-9.05-.26-.23-.54-.51-.9-.49-.41.09-.76.36-1.17.41-.46-.03-.9-.48-.82-.95.17-.49.55-.83.9-1.19,1.64-1.6,3.24-3.26,4.89-4.85,5.06,5.07,10.12,10.13,15.19,15.19-1.49,1.49-2.98,2.97-4.47,4.46h58.11v-58.09c-1.57,1.57-3.15,3.13-4.71,4.71-.27.28-.63.57-1.05.49-.47-.01-.83-.55-.67-1,.12-.39.41-.74.36-1.17-.15-.39-.49-.64-.77-.94-3.35-3.34-6.69-6.68-10.03-10.01-.92-.96-1.91-1.85-2.8-2.85,1.68-1.62,3.31-3.29,4.97-4.94,4.17,4.12,8.29,8.29,12.45,12.43.39.37.73.81,1.19,1.1.35.17.72-.06,1.05-.18.01-11.59,0-23.19,0-34.78-1.72,1.73-3.47,3.44-5.16,5.19Zm-16.02-22.56c.26-.47.74-.91,1.32-.83.64.05,1.1.58,1.53,1,2.57,2.58,5.14,5.15,7.7,7.72.49.48,1.07.94,1.18,1.64.06.73-.6,1.39-1.31,1.46-.59.01-1.13-.31-1.64-.59-1.09-.64-2.32-1.16-3.62-1.09-.67-.01-1.31.26-1.91.53-.71-.76-1.51-1.44-2.18-2.22.21-.58.47-1.13.51-1.75.09-1.4-.47-2.73-1.18-3.9-.36-.58-.64-1.3-.4-1.96Zm-42.84,14.15c-.14-.41-.45-.89-.18-1.3.23-.42.89-.47,1.19-.12,1.3,1.31,2.62,2.62,3.93,3.93-1.46,1.48-2.93,2.94-4.42,4.4-.33-.39-.78-.69-1.04-1.14.42-.72.87-1.45.99-2.3.22-1.17.03-2.4-.47-3.48Zm-2.32-.89c.24.27.59.51.62.91.05.4-.33.78-.74.74-.54,0-.95-.42-1.44-.6-.72-.33-1.59-.36-2.3.03-.37-.37-.74-.76-1.13-1.1.17-.57.32-1.17.18-1.76-.1-.67-.57-1.18-.77-1.8-.17-.42.13-.94.58-1,.33-.05.6.2.83.42,1.39,1.39,2.77,2.79,4.17,4.16Zm-7.18-10.75c1.32,1.28,2.61,2.58,3.9,3.88.42.41.04,1.1-.44,1.27-.4.05-.74-.22-1.1-.35-1.39-.68-3.11-.76-4.49-.01-.36.15-.66.46-1.04.53-.39-.31-.71-.69-1.07-1.03,1.39-1.46,2.85-2.84,4.24-4.29Zm-10.48,10.87c.03-.31.21-.58.42-.8,1.64-1.66,3.31-3.29,4.94-4.97,1.89,1.82,3.71,3.71,5.57,5.55,2.91,2.9,5.82,5.83,8.74,8.73-1.67,1.69-3.35,3.36-5.03,5.03-.35.38-1.04.55-1.37.08-.41-.44.04-.98.17-1.43.15-.33-.12-.63-.33-.86-3.36-3.35-6.71-6.7-10.07-10.07-.31-.28-.57-.63-.94-.82-.51-.12-.91.35-1.41.37-.39-.04-.74-.42-.69-.82Zm-6.83,6.46c1.68-1.71,3.39-3.38,5.07-5.07.26-.27.54-.55.91-.64.37-.08.83.15.89.56.09.45-.24.82-.33,1.26-.05.35.23.59.44.82,3.43,3.43,6.84,6.86,10.27,10.27.23.22.47.49.81.57.41-.04.76-.31,1.16-.4.49-.05.94.47.78.94-.06.35-.33.6-.56.85-1.67,1.67-3.34,3.34-5.01,4.99-.29.3-.68.6-1.12.5-.24-.1-.45-.3-.54-.54-.13-.57.48-1.03.33-1.59-.13-.22-.31-.39-.47-.56-1.57-1.55-3.12-3.13-4.7-4.69-.55.56-1.1,1.12-1.67,1.67-.39-.37-.77-.75-1.13-1.14.56-.55,1.12-1.12,1.68-1.67-1.39-1.36-2.76-2.75-4.13-4.12-.3-.28-.55-.59-.9-.8-.63-.21-1.23.68-1.84.19-.49-.35-.33-1.04.06-1.4Zm43.73,63.25c-.15-.65-.59-1.19-.81-1.81-.21-.53.28-1.14.83-1.05.26.06.45.23.63.41,1.35,1.36,2.71,2.7,4.04,4.06.44.45,1,.83,1.18,1.48-.17.28-.35.67-.73.71-.63.06-1.09-.44-1.66-.64-.77-.39-1.71-.39-2.48.01-.41-.41-.81-.82-1.22-1.22.28-.6.41-1.3.21-1.94Zm1.18-3.93c-.33.04-.64-.17-.94-.29-1.18-.58-2.54-.86-3.84-.53-.82.17-1.54.63-2.26,1.05-.39-.4-.77-.8-1.17-1.18,1.53-1.5,3.02-3.06,4.57-4.53,1.37,1.39,2.76,2.76,4.13,4.15.46.45-.03,1.13-.5,1.34Zm-3.09-16.48c.24-.83.58-1.68.44-2.55-.21-1.46-1.04-2.76-1.96-3.88-3.48-3.49-6.97-6.97-10.46-10.48-.54-.57-1.13-1.08-1.64-1.68.59.19,1.13.49,1.68.77,2.07,1,4.12,2.04,6.2,3.06.18.09.35.23.5.37,1.75,1.77,3.5,3.52,5.26,5.28.95,1.01,2.14,1.8,3.44,2.29.91.35,1.94.35,2.85.03.46-.15.96-.33,1.45-.18.49.19.85.68.89,1.21-.04.71-.49,1.3-.96,1.78-1.57,1.59-3.16,3.17-4.75,4.74-.42.39-.91.78-1.5.85-.85.13-1.68-.77-1.43-1.59Zm-11.4-11.44c3.09,3.13,5.56,7.06,6.39,11.44.46,2.4.36,4.92-.33,7.27-.68,2.32-1.91,4.47-3.47,6.32-.67-.71-1.4-1.36-2.04-2.08,0-.35.22-.64.28-.98.35-1.13,0-2.4-.86-3.22-6.34-6.35-12.71-12.71-19.05-19.06-.58-.59-1.31-1.07-2.14-1.13-.68-.09-1.35.15-1.99.38-.26.14-.42-.18-.59-.31-.51-.55-1.08-1.05-1.59-1.62,0-.04-.01-.12-.01-.15,1.71-1.46,3.71-2.61,5.87-3.3,2.55-.82,5.33-.91,7.96-.37,4.47.95,8.42,3.57,11.58,6.82Zm-37.47-24.34c1.67-1.67,3.34-3.34,4.99-5.01.18-.17.35-.33.56-.46.39-.24.96-.09,1.14.35.18.53-.29.98-.31,1.49-.01.27.21.46.37.64,3.56,3.56,7.1,7.11,10.66,10.66.64.69,1.46-.5,2.16.01.45.36.3,1.07-.09,1.4-1.67,1.68-3.35,3.34-5.01,5.02-.27.26-.54.57-.91.68-.41.12-.91-.14-.96-.58-.08-.51.39-.91.36-1.41-.06-.22-.21-.4-.36-.56-3.36-3.35-6.73-6.71-10.08-10.08-.32-.3-.59-.67-1.01-.82-.46-.03-.85.32-1.3.37-.39.01-.72-.33-.73-.71-.04-.4.24-.72.51-.99Zm-3.72,3.71c.77-.74,1.51-1.52,2.29-2.27,1.35,1.31,2.67,2.67,4.02,3.99.23.26.51.49.64.82.15.63-.56,1.32-1.19,1.04-.63-.28-1.13-.78-1.73-1.12-1.01-.63-2.2-1.03-3.4-.89-.35-.36-.73-.69-1.04-1.08.1-.21.27-.35.42-.5Zm-5.6,5.6h0c1.44-1.41,2.85-2.84,4.28-4.26,2.7,2.71,5.4,5.42,8.11,8.11,1.49,1.48,2.94,2.98,4.44,4.43.42.47.99.08,1.45-.09.46-.21,1,.21.99.69,0,.33-.19.62-.41.85-1.75,1.73-3.47,3.47-5.2,5.2-.24.24-.55.49-.91.46-.4.04-.78-.35-.74-.73.03-.41.35-.74.35-1.16.03-.35-.27-.57-.47-.8-4.1-4.07-8.15-8.18-12.26-12.23.13-.17.24-.32.39-.47Zm-4.03,4.02c.92-.87,1.78-1.81,2.72-2.67.48.18.77.72,1.16,1.05-.21,1.49.5,2.89,1.33,4.06.24.37.54.72.69,1.14.17.57-.38,1.16-.95,1.09-.32,0-.54-.27-.74-.46-1.4-1.41-2.81-2.8-4.21-4.21Zm38.21,50.17c-3.31,3.31-6.64,6.64-9.95,9.95-.44.42-.98.8-1.6.8-.77.03-1.49-.71-1.43-1.49.08-.77.72-1.39.73-2.18-.03-.47-.4-.83-.69-1.17-2.95-2.97-5.92-5.91-8.86-8.86-.12-.09-.27-.35-.44-.17-1.03.99-2.02,2.03-3.04,3.02-.69-.69-1.39-1.39-2.08-2.09.99-1.04,2.02-2.05,3.06-3.06,0-.05.01-.17.01-.22-2.79-2.73-5.52-5.51-8.29-8.27-.42-.4-.82-.9-1.41-1.04-.81-.05-1.44.58-2.2.72-.98.17-1.86-.94-1.53-1.85.17-.64.68-1.1,1.13-1.54,3.21-3.22,6.43-6.42,9.63-9.64.39-.37.89-.65,1.43-.69.89-.05,1.7.87,1.45,1.73-.19.65-.67,1.23-.69,1.94.05.62.57,1.05.98,1.46,6.59,6.59,13.18,13.18,19.77,19.77.31.3.65.59,1.09.63.74,0,1.32-.55,2.03-.72.85-.17,1.69.6,1.66,1.45-.03.58-.35,1.1-.74,1.51Zm-.49-8.84c-4.51-.99-8.47-3.7-11.64-7-2.93-3.07-5.29-6.83-6.12-11.03-.56-2.79-.38-5.74.62-8.41.71-1.96,1.82-3.76,3.15-5.37.65.67,1.35,1.31,1.99,1.99.13.41-.21.8-.27,1.21-.33,1.1.1,2.31.91,3.11,6.24,6.25,12.49,12.49,18.74,18.74.6.66,1.33,1.27,2.26,1.41.82.13,1.63-.15,2.39-.44.69.69,1.39,1.37,2.08,2.07-1.52,1.32-3.27,2.36-5.15,3.09-2.82,1.09-5.98,1.27-8.95.62Zm20.79,25.69c-.4-.39-.78-.77-1.17-1.17.23-.44.5-.9.42-1.41-.13-.77-.65-1.4-1.18-1.93-2.89-2.89-5.78-5.78-8.67-8.67-.59-.58-1.26-1.21-2.13-1.27-.47-.05-.9.19-1.3.42-.37-.41-.89-.72-1.12-1.23,1.41-1.45,3.34-2.47,5.38-2.59,2.29-.19,4.56.63,6.44,1.87,1.48.99,2.85,2.13,3.9,3.56,1.26,1.68,2.03,3.74,2.04,5.85.04,2.41-.91,4.85-2.63,6.56Zm7.72-7.7c-.24.27-.59.42-.91.57-.32-.12-.72-.23-.82-.59-.19-.6.44-1.08.36-1.67-.26-.5-.71-.86-1.09-1.26-3.12-3.12-6.24-6.24-9.36-9.36-.55-.51-1.01-1.13-1.67-1.51-.65-.13-1.25.71-1.87.26-.54-.35-.39-1.12.02-1.5,1.77-1.8,3.57-3.56,5.34-5.34,2.88,2.84,5.71,5.73,8.6,8.56,2.21,2.2,4.39,4.42,6.61,6.6-1.72,1.77-3.49,3.49-5.21,5.25Zm6.07-6.14c-.37-.4-.77-.78-1.16-1.18,1.37-1.69,1.57-4.15.64-6.1-.17-.46-.53-1.03-.19-1.49h0c.27-.41.92-.47,1.25-.09,1.39,1.4,2.8,2.79,4.17,4.2-1.58,1.54-3.09,3.16-4.71,4.66Zm11.52-11.45c-1.81,1.78-3.59,3.59-5.4,5.38-.4.44-1.14.22-1.39-.27-.36-.6.62-1.25.1-1.8-3.72-3.71-7.45-7.43-11.16-11.16-.27-.24-.5-.55-.82-.72-.55-.15-.99.31-1.5.37-.4-.04-.78-.39-.76-.8-.04-.45.3-.8.58-1.09,1.71-1.7,3.42-3.4,5.11-5.1,1.54,1.44,2.99,2.98,4.51,4.45,2.88,2.89,5.76,5.78,8.65,8.67.21.17.4.4.67.45.55.05.99-.49,1.54-.39.33.12.64.44.6.81,0,.5-.42.85-.73,1.18Zm7.43-10.31c-2.07.09-4.1-.64-5.82-1.72-1.25-.8-2.39-1.76-3.34-2.88.45,1.5.35,3.18-.36,4.6-.69,1.39-1.77,2.52-2.84,3.61-.39-.39-.78-.78-1.18-1.17.33-.54.55-1.18.35-1.81-.24-.64-.77-1.1-1.23-1.59-.95-.96-1.91-1.93-2.88-2.89-.56-.53-1.17-1.13-1.98-1.18-.47-.05-.9.19-1.3.42-.4-.39-.78-.78-1.18-1.17,1.54-1.55,3.3-3.16,5.56-3.44,1.85-.31,3.71.49,5.02,1.76-.82-1.64-1.33-3.49-1.16-5.35.15-1.95,1.01-3.81,2.3-5.28.37.39.77.77,1.15,1.16-.14.46-.36.95-.23,1.44.08.44.37.78.68,1.09,3.39,3.38,6.75,6.77,10.14,10.14.4.39.78.85,1.35,1,.51.14,1.04-.04,1.54-.19.39.39.78.77,1.16,1.18-1.62,1.33-3.63,2.27-5.76,2.27Zm13.47,29.7c2.19,0,4.06,1.7,4.06,4s-1.87,4.02-4.06,4.02-4.08-1.7-4.08-4.02,1.87-4,4.08-4Zm-12.87-55.52c-.17,1.28.27,2.55.94,3.63.35.62.85,1.14,1.16,1.78.17.31.05.65-.06.96,1.62,1.09,3.04,2.48,4.17,4.06,1.3,1.84,2.21,4.02,2.16,6.3.01,2.17-.92,4.25-2.3,5.89-.37-.39-.81-.73-1.13-1.17.06-.48.3-.94.18-1.41-.13-.62-.6-1.05-1.03-1.48-3.39-3.38-6.77-6.75-10.14-10.13-.33-.33-.73-.64-1.21-.68-.45-.05-.9.08-1.31.22-.4-.37-.8-.77-1.18-1.16,1.71-1.46,3.93-2.4,6.2-2.29.87-.03,1.72.18,2.57.37-1.03-1.07-2.12-2.07-3.11-3.16.96-.96,1.94-1.93,2.9-2.9.42.35.8.76,1.19,1.14Zm-1.07-8c-3.3,3.29-6.59,6.6-9.89,9.89-.42.42-.96.81-1.59.81-.69.04-1.36-.55-1.45-1.23-.09-.9.74-1.57.72-2.47-.04-.42-.33-.77-.62-1.08-5.76-5.75-11.52-11.52-17.28-17.27,4.76,8.85,9.56,17.67,14.33,26.51.08.13.14.27.21.42-.35.32-.68.67-1.01,1.01-9.54-4.7-19.07-9.45-28.59-14.16-1.5-.74-2.99-1.62-4.69-1.82-.57-.08-.95.39-1.36.68-.42.33-.99.54-1.51.37-.63-.28-1.07-1.03-.87-1.71.13-.46.45-.85.78-1.18,3.08-3.07,6.15-6.15,9.23-9.2,4.8,2.35,9.62,4.65,14.43,7,.15.12.32.23.46.38.08-.09.14-.18.22-.27l-.18.03c-2.53-4.81-5.19-9.56-7.72-14.38,3.18-3.16,6.33-6.33,9.5-9.49.35-.35.78-.6,1.27-.67.86-.13,1.76.71,1.59,1.58-.12.77-.76,1.39-.71,2.2.13.56.59.95.96,1.35,6.56,6.55,13.12,13.08,19.66,19.64.36.32.72.75,1.23.75.77,0,1.36-.58,2.09-.71.85-.14,1.68.69,1.58,1.54-.05.58-.4,1.08-.8,1.48Zm4.25-4.24c-.41.39-.91.71-1.48.74-.78.06-1.57-.64-1.5-1.44.03-.78.69-1.39.71-2.18.03-.5-.36-.87-.68-1.22-6.64-6.62-13.26-13.26-19.9-19.9-.37-.36-.78-.81-1.35-.77-.83.01-1.46.78-2.31.69-.49.01-.89-.37-1.13-.77-.33-.69-.03-1.53.48-2.04,3.11-3.11,6.21-6.21,9.31-9.32.12-.13.32-.24.44-.05,8.95,8.94,17.9,17.88,26.83,26.83-3.13,3.13-6.28,6.28-9.41,9.42Zm9.56,7.63c-.62.09-1.09-.4-1.57-.72-1.27-.87-2.77-1.69-4.36-1.43-.42-.39-.83-.78-1.18-1.23.99-.95,1.94-1.93,2.9-2.89,1.59,1.57,3.17,3.15,4.74,4.74.5.48.14,1.43-.53,1.53Z"/></g></svg>