<?xml version="1.0" encoding="UTF-8"?><svg id="d" xmlns="http://www.w3.org/2000/svg" viewBox="0 0 200 200"><defs><style>.h{fill:#fff;stroke-width:0px;}</style></defs><g id="e"><g id="f"><path class="h" d="M149.51,132.15c-.68-5.31-2.62-10.15-5.59-14.58-3.2-4.79-7.29-8.68-12.04-11.89-.19-.13-.39-.27-.59-.41.05-.16.09-.28.13-.4.88-2.63.39-5.01-1.42-7.09-1.23-1.42-2.83-2.26-4.66-2.64-.36-.07-.58-.23-.78-.53-1.26-1.91-2.7-3.67-4.37-5.24-6.92-6.5-15.09-9.38-24.57-8.37-4.53.48-8.71,2.03-12.56,4.47-3.75,2.38-6.83,5.43-9.3,9.12-.21.31-.45.48-.82.55-1.06.2-2.05.6-2.94,1.19-2.05,1.35-3.31,3.2-3.51,5.69-.09,1.08.11,2.12.54,3.19-.2.14-.36.25-.52.36-2.77,1.86-5.34,3.97-7.65,6.38-3.3,3.44-5.98,7.3-7.81,11.72-2.76,6.66-3.33,13.51-1.59,20.51,1.37,5.53,4.07,10.37,7.76,14.67,4.15,4.84,9.17,8.56,14.85,11.41,7.76,3.89,16.01,5.86,24.66,6.18,7.15.26,14.16-.6,20.99-2.76,6.39-2.01,12.27-5,17.5-9.22,4.68-3.78,8.5-8.26,11.15-13.69,2.88-5.9,3.96-12.12,3.12-18.64ZM140.78,145.96c-1.94,4.86-5.05,8.88-8.98,12.29-4.38,3.81-9.4,6.51-14.86,8.4-3.34,1.15-6.77,1.94-10.27,2.41-3.49.47-6.99.6-10.5.42-6.58-.35-12.93-1.76-18.96-4.47-4.93-2.21-9.36-5.14-13.12-9.04-3.46-3.59-6.04-7.7-7.44-12.51-.08-.26-.12-.52-.19-.82h85.39c-.27,1.18-.64,2.25-1.06,3.31ZM142.6,138.04c-.07,1.07-.25,2.14-.39,3.24H56.11c-.08-.47-.16-.96-.23-1.44-.29-2.06-.33-4.13-.1-6.2.73-6.64,3.73-12.17,8.28-16.94,3.41-3.57,7.43-6.31,11.86-8.48.13-.06.26-.13.39-.2.03-.02.06-.04.12-.08-.02-.05-.03-.12-.05-.18-1.69-3.42-1.31-6.68.82-9.78,1.18-1.72,2.74-3.05,4.48-4.19,1.79-1.17,3.73-2.04,5.74-2.76.2-.07.42-.18.53-.34,1.22-1.63,2.85-2.68,4.7-3.43,2.64-1.06,5.39-1.37,8.21-1.12,2.05.18,4.01.68,5.85,1.62,1.41.72,2.65,1.64,3.6,2.93.12.16.34.28.53.35,1.81.63,3.55,1.41,5.18,2.4,1.77,1.08,3.36,2.36,4.65,4,1.35,1.72,2.19,3.65,2.27,5.85.05,1.43-.26,2.81-.87,4.11-.08.16-.16.33-.25.53.93.49,1.82.93,2.68,1.4,4.3,2.37,8.13,5.34,11.29,9.12,2.99,3.57,5.15,7.58,6.2,12.14.56,2.45.76,4.93.59,7.44Z"/><path class="h" d="M101.11,103.64c.25.02.51.05.76.06.88.05,1.76.06,2.64.14,2.69.23,5.37.57,8,1.18.69.16,1.32.11,2-.07,1.62-.42,2.53-1.47,2.85-3.08.24-1.17.3-2.36.29-3.56,0-1.18-.5-1.88-1.6-2.31-.73-.28-1.49-.39-2.26-.43-1.84-.1-3.67.11-5.48.37-1.94.29-3.88.6-5.83.85-2.31.3-4.62.23-6.92-.06-1.91-.25-3.81-.58-5.71-.87-1.77-.27-3.54-.4-5.32-.29-.9.06-1.79.2-2.61.62-.75.38-1.2.96-1.23,1.81-.05,1.4,0,2.79.33,4.15.34,1.37,1.15,2.31,2.54,2.7.26.07.53.14.8.21.34.1.68.07,1.03,0,2.04-.36,4.08-.76,6.13-1.02,1.64-.21,3.29-.25,4.94-.37.25-.02.5-.04.74-.06.39-.86.86-1.56,1.89-1.59,1.12-.04,1.61.71,2.03,1.6Z"/><path class="h" d="M99.15,113.95c1.33.79,2.61,1.55,3.89,2.3.14.08.28.18.44.22.33.1.65-.05.79-.34.13-.28.06-.57-.21-.78-.13-.1-.28-.18-.42-.26-.92-.54-1.83-1.08-2.75-1.63-.12-.07-.22-.16-.39-.28.2-.13.35-.24.5-.33.88-.52,1.77-1.05,2.66-1.57.14-.08.29-.16.42-.27.26-.22.32-.51.17-.79-.14-.27-.43-.41-.75-.32-.17.05-.33.15-.49.24-1.15.68-2.31,1.37-3.46,2.05-.14.08-.29.15-.43.22-1.3-.77-2.58-1.53-3.86-2.28-.17-.1-.36-.2-.55-.24-.29-.06-.57.1-.68.35-.12.26-.04.6.2.79.1.08.22.14.33.2.92.54,1.83,1.08,2.75,1.63.15.09.3.19.5.32-.19.13-.34.24-.49.33-.9.53-1.8,1.06-2.7,1.6-.11.07-.23.12-.33.2-.31.22-.4.57-.24.87.16.29.51.41.86.27.2-.09.39-.21.58-.32,1.22-.72,2.43-1.44,3.66-2.17Z"/><path class="h" d="M101.11,103.64c-.42-.89-.91-1.64-2.03-1.6-1.03.03-1.5.73-1.89,1.59-.23.02-.48.05-.74.06-1.65.12-3.31.16-4.94.37-2.05.27-4.09.66-6.13,1.02-.35.06-.69.09-1.03,0-.26-.08-.53-.14-.8-.21-1.39-.39-2.21-1.33-2.54-2.7-.34-1.36-.39-2.76-.33-4.15.03-.85.48-1.44,1.23-1.81.82-.41,1.71-.56,2.61-.62,1.78-.11,3.56.02,5.32.29,1.9.29,3.8.62,5.71.87,2.3.3,4.62.37,6.92.06,1.95-.26,3.88-.57,5.83-.85,1.82-.27,3.64-.47,5.48-.37.77.04,1.54.15,2.26.43,1.1.43,1.6,1.13,1.6,2.31,0,1.19-.06,2.38-.29,3.56-.33,1.61-1.23,2.65-2.85,3.08-.67.18-1.31.23-2,.07-2.63-.62-5.31-.95-8-1.18-.88-.07-1.76-.09-2.64-.14-.25-.01-.51-.04-.76-.06Z"/><path class="h" d="M99.15,113.95c-1.23.73-2.45,1.45-3.66,2.17-.19.11-.38.24-.58.32-.35.15-.7.03-.86-.27-.16-.3-.07-.64.24-.87.1-.08.22-.13.33-.2.9-.53,1.8-1.06,2.7-1.6.15-.09.29-.2.49-.33-.2-.13-.35-.23-.5-.32-.92-.54-1.83-1.09-2.75-1.63-.11-.07-.23-.12-.33-.2-.24-.19-.32-.53-.2-.79.11-.25.39-.41.68-.35.19.04.38.14.55.24,1.28.75,2.56,1.51,3.86,2.28.15-.07.29-.14.43-.22,1.15-.68,2.3-1.37,3.46-2.05.16-.09.32-.19.49-.24.31-.09.6.05.75.32.15.28.09.57-.17.79-.13.1-.27.18-.42.27-.88.52-1.77,1.04-2.66,1.57-.15.09-.3.19-.5.33.16.12.27.21.39.28.91.55,1.83,1.09,2.75,1.63.14.08.29.16.42.26.27.22.34.51.21.78-.14.29-.46.44-.79.34-.15-.05-.3-.14-.44-.22-1.28-.76-2.56-1.51-3.89-2.3Z"/></g><g id="g"><path class="h" d="M151.95,91.08c1.08,0,1.98.85,1.98,1.97s-.9,1.99-1.98,1.99-1.99-.85-1.99-1.99.91-1.97,1.99-1.97ZM151.95,94.74c.91,0,1.62-.73,1.62-1.7s-.71-1.68-1.62-1.68-1.63.73-1.63,1.68.71,1.7,1.63,1.7ZM151.18,91.9h.89c.55,0,.81.22.81.66,0,.42-.26.59-.61.63l.66,1.02h-.39l-.63-.99h-.38v.99h-.36v-2.31ZM151.54,92.93h.38c.32,0,.61-.02.61-.38,0-.31-.26-.35-.51-.35h-.48v.73Z"/><path class="h" d="M132.64,51.35c-.15-.15-.27-.28-.39-.41-1.5-1.62-3.32-2.71-5.5-3.15-1.26-.25-2.53-.21-3.79-.17-4.68.16-8.77,3.75-9.56,8.37-.1.58-.15,1.17-.15,1.75-.01,4.9,0,9.81,0,14.72,0,.85.24,1.1,1.07,1.1.81,0,1.62,0,2.43,0,.82,0,1.07-.26,1.08-1.1,0-.15,0-.29,0-.44,0-4.65,0-9.3,0-13.94,0-.42.03-.85.08-1.26.29-2.21,2.03-4.1,4.2-4.58,1.05-.23,2.12-.17,3.18-.12,1.02.05,1.93.41,2.75,1.03,1.59,1.19,2.31,2.8,2.31,4.76,0,5.82,0,11.65,0,17.47,0,1.12,0,2.24,0,3.36,0,.73.28.99,1.01,1,.73,0,1.47-.02,2.2,0,1.25.06,1.38-.37,1.38-1.36-.01-6.74,0-13.48,0-20.23,0-.39.01-.77.05-1.16.23-2.32,1.98-4.28,4.26-4.77,1-.22,2.01-.18,3.02-.12,2.45.14,4.51,1.91,5.03,4.3.11.52.16,1.06.16,1.58,0,9.22,0,18.44,0,27.67,0,.89.26,1.15,1.14,1.16.77,0,1.54-.01,2.32,0,.67.02,1.2-.26,1.13-1.13,0-.05,0-.11,0-.17,0-9.19,0-18.37,0-27.56,0-.42-.02-.84-.06-1.26-.38-4.19-3.73-7.96-7.85-8.86-1.22-.27-2.45-.25-3.68-.24-2.94.02-5.38,1.15-7.39,3.28-.14.15-.27.29-.44.47Z"/><path class="h" d="M111.07,33.34c0-1.65,0-3.31,0-4.96,0-.94,0-1.87,0-2.81,0-.85-.26-1.1-1.13-1.1-.85,0-1.69,0-2.54,0-.61,0-.9.3-.92.92,0,.15,0,.29,0,.44,0,4.79,0,9.59,0,14.38,0,.29,0,.59-.02.88-.19,2.53-2,4.59-4.5,5.02-.82.14-1.68.11-2.53.11-1.62,0-2.96-.65-4.04-1.83-1.02-1.11-1.44-2.45-1.44-3.94,0-4.87,0-9.73,0-14.6,0-.15,0-.29,0-.44-.03-.64-.31-.93-.96-.93-.86,0-1.73.03-2.59-.01-.73-.03-1.04.45-1.04,1.04.02,5.05,0,10.1.01,15.15.02,5.31,4.08,8.83,7.5,9.72,1.45.37,2.91.35,4.38.33,1.28-.02,2.53-.27,3.68-.83,3.88-1.91,6.04-4.98,6.12-9.36.05-2.39,0-4.77,0-7.16Z"/><path class="h" d="M89.39,47.68c-.01.15-.02.24-.02.32,0,5.31-.04,10.62.01,15.92.05,4.55,3.36,8.62,7.79,9.65,1.88.44,3.8.41,5.69.08,4.03-.7,8.23-4.59,8.21-10.04-.02-5.16,0-10.32,0-15.48,0-.14-.02-.27-.03-.51-.18.22-.3.36-.41.5-1.03,1.29-2.25,2.38-3.69,3.19-.35.2-.47.43-.46.82.02,3.75,0,7.49,0,11.24,0,.31,0,.63-.03.94-.22,2.48-2,4.5-4.46,4.95-1.23.23-2.49.19-3.73-.03-.6-.11-1.16-.35-1.67-.69-1.76-1.17-2.64-2.81-2.64-4.92,0-3.82,0-7.64,0-11.46,0-.42-.1-.66-.49-.87-.93-.49-1.76-1.14-2.49-1.89-.53-.54-1.02-1.1-1.59-1.73Z"/><path class="h" d="M85.12,47.33c.35-.38.68-.71.99-1.07,2.72-3.2,1.89-7.74-1.88-9.79-.97-.53-2.01-.91-3.08-1.19-2.79-.7-5.6-1.39-8.39-2.08-.55-.14-1.11-.27-1.64-.46-.96-.34-1.37-1.07-1.22-2.07.1-.69.46-1.23.99-1.66.52-.43,1.11-.71,1.75-.9,1.63-.48,3.29-.57,4.96-.35,1.2.15,2.25.65,3.2,1.38.6.46,1.05,1.05,1.06,1.85,0,.52.42.9.97.9,1.08,0,2.17.01,3.25,0,.69-.01.96-.33.94-1-.05-1.69-.72-3.1-1.96-4.23-1.23-1.12-2.66-1.9-4.25-2.37-3.36-.99-6.71-.9-10.04.16-1.73.56-3.29,1.45-4.56,2.79-2.02,2.14-2.65,5.58.21,8.17.72.65,1.56,1.11,2.47,1.41,1.27.41,2.57.74,3.86,1.1,2.49.7,4.99,1.38,7.48,2.09.4.11.79.3,1.15.52.52.31.78.81.82,1.42.05.96-.27,1.78-1,2.4-.4.34-.89.58-1.34.86-.09.06-.19.11-.35.2,2.08.09,3.87.71,5.58,1.95Z"/><path class="h" d="M113.24,50.59c.14-.09.18-.1.2-.12.1-.11.19-.23.28-.34,1.02-1.25,2.2-2.32,3.61-3.11.38-.21.49-.45.49-.86-.02-3.75-.01-7.49,0-11.24,0-.4.03-.81.08-1.21.29-2.28,2.03-4.16,4.27-4.63.98-.21,1.98-.16,2.97-.11,2.55.13,4.72,2.08,5.12,4.6.08.51.11,1.02.11,1.54,0,3.71,0,7.42,0,11.13,0,.37.09.59.44.78.53.29,1.01.66,1.51,1,.12.08.23.16.32.22.64-.42,1.21-.85,1.83-1.2.38-.21.49-.45.49-.87-.02-3.65,0-7.31-.01-10.96,0-.37,0-.73-.03-1.1-.29-4.07-2.38-6.95-5.98-8.73-2.39-1.18-4.96-1.11-7.51-.7-3.98.64-8.2,4.56-8.19,9.93.01,5.12,0,10.25,0,15.37,0,.18,0,.36,0,.62Z"/><path class="h" d="M72.18,45.39s0-.05.01-.08c-.14-.07-.29-.13-.42-.22-.47-.31-.98-.59-1.41-.95-.61-.51-.96-1.18-1-2.01-.03-.56-.34-.9-.9-.91-1.25-.03-2.5-.03-3.74,0-.61.01-.92.4-.9,1.02.03.95.27,1.84.69,2.7.17.34.38.46.77.46,2.18-.02,4.37,0,6.55,0,.12,0,.24,0,.36,0Z"/><path class="h" d="M86.03,61.09c-.27-.32-.56-.63-.87-.97.04-.07.06-.13.09-.17,1.2-1.51,1.66-3.24,1.58-5.15-.07-1.59-.56-3.03-1.56-4.27-1.55-1.94-3.57-2.94-6.07-2.93-5.51,0-11.03,0-16.54,0-1.56,0-3.12-.01-4.68-.04-1.29-.02-2.57.04-3.84.3-2.1.42-4,1.25-5.52,2.8-1.71,1.75-2.55,3.85-2.34,6.3.18,2.18,1.29,3.87,3.05,5.14,1.46,1.05,3.12,1.52,4.91,1.6,1.33.06,2.6-.15,3.78-.79,1.29-.7,2.25-1.71,2.69-3.14.54-1.71-.09-3.43-1.64-4.33-1.64-.96-3.32-.9-4.92.07-1.47.88-2.02,2.72-1.37,4.3.61,1.46,1.79,2.12,3.32,2.24.24.02.48,0,.72.02.11.01.28.09.3.17.03.09-.05.26-.13.32-.17.13-.37.25-.58.3-.86.24-1.74.3-2.62.13-1.32-.26-2.29-1.04-3.06-2.1-1.94-2.68-1.57-6.55-.19-8.66.97-1.49,2.38-2.38,4.06-2.85,2.07-.58,4.17-.6,6.28-.22.38.07.75.19,1.11.33,1.28.5,1.87,1.38,1.89,2.75,0,.22,0,.44,0,.66,0,6.52,0,13.04-.01,19.56,0,.83.41,1.11,1.08,1.11,5.11-.01,10.22,0,15.33,0,1.12,0,2.19-.22,3.2-.73,4.95-2.49,5.26-8.5,2.55-11.74ZM68.48,52.13c.15-.02.29-.06.43-.06,3.45,0,6.9,0,10.35,0,1.69,0,2.81,1.48,2.94,2.69.18,1.71-.72,3.12-2.26,3.49-.28.07-.58.08-.87.08-2.62,0-5.25,0-7.87,0-.9,0-1.79.05-2.7.5v-6.69ZM81.47,68.75c-.41.23-.86.33-1.32.33-3.78,0-7.56,0-11.34,0-.09,0-.18-.02-.35-.05v-.59c0-.95,0-1.91,0-2.86,0-.26,0-.51.03-.77.11-1.06.91-1.86,1.97-1.98.16-.02.33-.02.49-.02,3.03,0,6.06,0,9.09,0,.81,0,1.5.24,2.11.78,1.39,1.22,1.42,4.01-.68,5.17Z"/><path class="h" d="M132.64,51.35c.17-.18.3-.32.44-.47,2-2.13,4.45-3.26,7.39-3.28,1.23,0,2.46-.03,3.68.24,4.11.91,7.46,4.68,7.85,8.86.04.42.06.84.06,1.26,0,9.19,0,18.37,0,27.56,0,.06,0,.11,0,.17.08.87-.45,1.14-1.13,1.13-.77-.02-1.54,0-2.32,0-.88,0-1.14-.27-1.14-1.16,0-9.22,0-18.44,0-27.67,0-.53-.04-1.07-.16-1.58-.52-2.39-2.58-4.16-5.03-4.3-1.01-.06-2.02-.1-3.02.12-2.28.49-4.03,2.45-4.26,4.77-.04.38-.05.77-.05,1.16,0,6.74,0,13.48,0,20.23,0,.99-.13,1.42-1.38,1.36-.73-.03-1.47,0-2.2,0-.73,0-1-.27-1.01-1,0-1.12,0-2.24,0-3.36,0-5.82,0-11.65,0-17.47,0-1.97-.73-3.57-2.31-4.76-.81-.61-1.73-.97-2.75-1.03-1.06-.06-2.13-.11-3.18.12-2.18.48-3.92,2.37-4.2,4.58-.05.42-.08.84-.08,1.26,0,4.65,0,9.3,0,13.94,0,.15,0,.29,0,.44,0,.84-.26,1.09-1.08,1.1-.81,0-1.62,0-2.43,0-.83,0-1.07-.25-1.07-1.1,0-4.91,0-9.81,0-14.72,0-.58.06-1.18.15-1.75.79-4.62,4.88-8.21,9.56-8.37,1.27-.04,2.54-.09,3.79.17,2.19.44,4,1.53,5.5,3.15.12.13.25.26.39.41Z"/><path class="h" d="M111.07,33.34c0,2.39.04,4.78,0,7.16-.09,4.38-2.25,7.45-6.12,9.36-1.15.57-2.4.81-3.68.83-1.47.02-2.93.05-4.38-.33-3.43-.89-7.49-4.41-7.5-9.72-.02-5.05,0-10.1-.01-15.15,0-.59.32-1.07,1.04-1.04.86.04,1.73,0,2.59.01.65,0,.94.29.96.93,0,.15,0,.29,0,.44,0,4.87,0,9.73,0,14.6,0,1.49.42,2.82,1.44,3.94,1.08,1.19,2.42,1.83,4.04,1.83.84,0,1.7.03,2.53-.11,2.5-.43,4.31-2.49,4.5-5.02.02-.29.02-.59.02-.88,0-4.79,0-9.59,0-14.38,0-.15,0-.29,0-.44.03-.62.31-.91.92-.92.84-.01,1.69,0,2.54,0,.87,0,1.12.25,1.13,1.1,0,.94,0,1.87,0,2.81,0,1.65,0,3.31,0,4.96Z"/><path class="h" d="M89.39,47.68c.57.62,1.06,1.19,1.59,1.73.74.75,1.56,1.4,2.49,1.89.39.2.49.45.49.87-.02,3.82,0,7.64,0,11.46,0,2.11.88,3.75,2.64,4.92.51.34,1.07.58,1.67.69,1.24.22,2.49.26,3.73.03,2.45-.45,4.24-2.47,4.46-4.95.03-.31.03-.62.03-.94,0-3.75,0-7.49,0-11.24,0-.4.11-.62.46-.82,1.44-.81,2.65-1.9,3.69-3.19.11-.14.23-.27.41-.5.02.23.03.37.03.51,0,5.16-.01,10.32,0,15.48.02,5.45-4.18,9.34-8.21,10.04-1.9.33-3.81.36-5.69-.08-4.43-1.03-7.74-5.1-7.79-9.65-.05-5.31-.01-10.62-.01-15.92,0-.09.01-.17.02-.32Z"/><path class="h" d="M85.12,47.33c-1.71-1.24-3.5-1.86-5.58-1.95.17-.09.26-.14.35-.2.45-.28.93-.52,1.34-.86.73-.62,1.05-1.44,1-2.4-.03-.61-.29-1.11-.82-1.42-.36-.21-.75-.4-1.15-.52-2.49-.71-4.98-1.4-7.48-2.09-1.29-.36-2.59-.7-3.86-1.1-.91-.29-1.75-.75-2.47-1.41-2.86-2.59-2.23-6.03-.21-8.17,1.27-1.34,2.83-2.23,4.56-2.79,3.32-1.07,6.68-1.15,10.04-.16,1.58.47,3.02,1.25,4.25,2.37,1.24,1.13,1.91,2.54,1.96,4.23.02.68-.26.99-.94,1-1.08.02-2.17,0-3.25,0-.55,0-.97-.38-.97-.9-.01-.79-.46-1.38-1.06-1.85-.95-.73-2.01-1.22-3.2-1.38-1.68-.21-3.34-.13-4.96.35-.64.19-1.23.48-1.75.9-.53.44-.89.97-.99,1.66-.15,1,.25,1.73,1.22,2.07.54.19,1.09.32,1.64.46,2.8.7,5.6,1.38,8.39,2.08,1.07.27,2.11.65,3.08,1.19,3.77,2.06,4.6,6.6,1.88,9.79-.31.36-.64.7-.99,1.07Z"/><path class="h" d="M113.24,50.59c0-.26,0-.44,0-.62,0-5.12,0-10.25,0-15.37-.01-5.37,4.21-9.29,8.19-9.93,2.54-.41,5.12-.49,7.51.7,3.6,1.78,5.69,4.65,5.98,8.73.03.37.03.73.03,1.1,0,3.65,0,7.31.01,10.96,0,.42-.11.66-.49.87-.62.35-1.2.78-1.83,1.2-.09-.06-.2-.14-.32-.22-.5-.34-.98-.71-1.51-1-.35-.19-.44-.41-.44-.78.01-3.71.01-7.42,0-11.13,0-.51-.03-1.03-.11-1.54-.4-2.52-2.57-4.47-5.12-4.6-.99-.05-1.98-.1-2.97.11-2.24.47-3.99,2.36-4.27,4.63-.05.4-.08.8-.08,1.21,0,3.75-.01,7.49,0,11.24,0,.42-.11.65-.49.86-1.41.79-2.59,1.86-3.61,3.11-.09.11-.18.23-.28.34-.02.03-.06.04-.2.12Z"/><path class="h" d="M72.18,45.39c-.12,0-.24,0-.36,0-2.18,0-4.37,0-6.55,0-.38,0-.6-.12-.77-.46-.42-.85-.66-1.75-.69-2.7-.02-.61.29-1,.9-1.02,1.25-.03,2.5-.03,3.74,0,.56.01.88.35.9.91.04.82.39,1.49,1,2.01.43.36.93.64,1.41.95.13.09.28.15.42.22,0,.03,0,.05-.01.08Z"/></g></g></svg>